<svg width="135" height="55" viewBox="0 0 135 55" fill="none" xmlns="http://www.w3.org/2000/svg">
<path d="M67.0082 5.74993H69.5848V8.88733H67.0082V18.1165C67.0082 18.9275 67.1944 19.5369 67.5645 19.9424C67.9346 20.3479 68.577 20.5518 69.4917 20.5518C69.7152 20.5518 69.9619 20.5402 70.2319 20.5147C70.5042 20.4892 70.7137 20.4545 70.8627 20.4035V23.3555C70.7137 23.4042 70.4297 23.4737 70.0108 23.5595C69.5895 23.6452 69.0844 23.6892 68.4909 23.6892C66.957 23.6892 65.7467 23.2536 64.8575 22.3777C63.9684 21.5042 63.5215 20.2552 63.5215 18.6309V8.88501H60.1093V5.74761H61.0729C62.0365 5.74761 62.7348 5.48809 63.1677 4.97137C63.6007 4.45464 63.8171 3.80353 63.8171 3.0157V0.135498H67.0059V5.74529L67.0082 5.74993Z" fill="white"/>
<path d="M85.0282 9.25579C84.5092 9.18165 84.0018 9.14457 83.5083 9.14457C82.0489 9.14457 80.8689 9.56861 79.9681 10.4167C79.065 11.2648 78.6158 12.662 78.6158 14.6061V23.5016H75.1314V5.74996H78.5436V8.85029C78.8648 8.1621 79.2419 7.60136 79.6748 7.17037C80.1077 6.73938 80.5593 6.39644 81.0295 6.13692C81.4996 5.8774 81.9814 5.7013 82.4749 5.60167C82.9706 5.50435 83.4385 5.45337 83.8831 5.45337C84.1298 5.45337 84.3579 5.46495 84.5697 5.49044C84.7792 5.51593 84.9328 5.5391 85.0329 5.56459V9.25579H85.0282Z" fill="white"/>
<path d="M100.164 21.3629C99.671 22.299 98.9285 22.9802 97.9393 23.4112C96.95 23.8422 95.9376 24.0577 94.8995 24.0577C93.8614 24.0577 92.928 23.8723 92.0994 23.5039C91.2708 23.1355 90.5725 22.6304 90.0046 21.9908C89.4343 21.3513 88.9968 20.6005 88.6872 19.7386C88.3776 18.8766 88.224 17.9428 88.224 16.9325V9.32766H91.7084V16.4158C91.7084 17.0298 91.7828 17.6161 91.9318 18.1699C92.0808 18.7237 92.3135 19.2103 92.6347 19.6273C92.9559 20.0467 93.3702 20.3781 93.8777 20.6237C94.3851 20.8693 95.0089 20.9921 95.749 20.9921C97.1572 20.9921 98.2162 20.5751 98.9192 19.7362C99.6244 18.8998 99.9759 17.8038 99.9759 16.4505V5.74536H103.46V20.2159C103.46 20.9296 103.46 23.5201 103.46 23.5016H100.153C100.153 23.5016 100.153 21.3582 100.16 21.3606" fill="white"/>
<path d="M85.7009 37.8491C86.1944 36.913 86.9369 36.2318 87.9261 35.8008C88.9153 35.3698 89.9278 35.1543 90.9659 35.1543C92.004 35.1543 92.9373 35.3397 93.7659 35.7081C94.5946 36.0765 95.2928 36.5817 95.8607 37.2212C96.431 37.8607 96.8686 38.6115 97.1781 39.4734C97.4877 40.3331 97.6413 41.2692 97.6413 42.2795V49.8843H94.157V42.7962C94.157 42.1822 94.0825 41.5959 93.9335 41.0421C93.7846 40.4884 93.5518 40.0018 93.2306 39.5847C92.9094 39.1653 92.4951 38.8339 91.9877 38.5883C91.4803 38.3427 90.8565 38.2199 90.1163 38.2199C88.7081 38.2199 87.6491 38.637 86.9462 39.4758C86.2409 40.3122 85.8895 41.4083 85.8895 42.7615V53.4667H82.4051V38.9961C82.4051 38.2824 82.4051 35.6919 82.4051 35.7104H85.7126C85.7126 35.7104 85.7126 37.8538 85.7056 37.8514" fill="white"/>
<path d="M110.652 17.7829C110.776 18.719 111.183 19.5045 111.877 20.144C112.568 20.7836 113.546 21.1033 114.807 21.1033C115.796 21.1033 116.55 20.8693 117.07 20.4012C117.589 19.9332 117.849 19.3794 117.849 18.7398C117.849 18.1745 117.651 17.6948 117.256 17.3009C116.86 16.907 116.292 16.6243 115.55 16.4505L112.51 15.7855C111.102 15.4912 110.008 14.9003 109.228 14.0129C108.448 13.1277 108.06 12.0572 108.06 10.8013C108.06 10.039 108.227 9.31835 108.56 8.64175C108.893 7.96514 109.344 7.36732 109.915 6.8506C110.483 6.33388 111.158 5.92838 111.935 5.63178C112.712 5.3375 113.534 5.18921 114.4 5.18921C115.61 5.18921 116.63 5.36299 117.458 5.70593C118.287 6.05118 118.96 6.47522 119.479 6.98036C119.998 7.48549 120.386 8.00685 120.647 8.54906C120.905 9.09127 121.085 9.55933 121.185 9.95093L118.108 11.0956C118.059 10.8732 117.973 10.5905 117.849 10.2475C117.726 9.90227 117.528 9.57787 117.256 9.26969C116.983 8.96151 116.613 8.69736 116.143 8.47723C115.673 8.2571 115.091 8.14588 114.4 8.14588C113.511 8.14588 112.794 8.38454 112.249 8.86419C111.704 9.34384 111.434 9.89068 111.434 10.507C111.434 11.6401 112.114 12.3515 113.473 12.6481L116.367 13.276C117.998 13.6213 119.227 14.2539 120.056 15.1761C120.884 16.0983 121.299 17.2244 121.299 18.5545C121.299 19.194 121.164 19.8335 120.891 20.4731C120.619 21.1126 120.216 21.7035 119.686 22.2457C119.155 22.7879 118.48 23.2235 117.665 23.5549C116.851 23.8885 115.885 24.053 114.772 24.053C113.536 24.053 112.48 23.8793 111.602 23.5363C110.725 23.1911 109.994 22.7624 109.414 22.2434C108.832 21.7266 108.388 21.1659 108.078 20.5634C107.769 19.961 107.578 19.4002 107.503 18.8835L110.655 17.7759L110.652 17.7829Z" fill="white"/>
<path d="M130.402 5.74993H132.978V8.88733H130.402V18.1165C130.402 18.9275 130.588 19.5369 130.958 19.9424C131.33 20.3479 131.973 20.5518 132.885 20.5518C133.109 20.5518 133.355 20.5402 133.628 20.5147C133.9 20.4892 134.11 20.4545 134.259 20.4035V23.3555C134.11 23.4042 133.826 23.4737 133.404 23.5595C132.983 23.6452 132.478 23.6892 131.884 23.6892C130.351 23.6892 129.14 23.2536 128.251 22.3777C127.362 21.5042 126.917 20.2552 126.917 18.6309V8.88501H123.505V5.74761H124.469C125.432 5.74761 126.131 5.48809 126.564 4.97137C126.997 4.45464 127.213 3.80353 127.213 3.0157V0.135498H130.402V5.74529V5.74993Z" fill="white"/>
<path d="M66.9756 29.9084H63.4913V53.4645H66.9756V29.9084Z" fill="white"/>
<path d="M72.1382 32.2349C72.1382 31.5212 72.3802 30.9234 72.8621 30.4438C73.3439 29.9641 73.9304 29.7231 74.624 29.7231C75.3176 29.7231 75.9414 29.9641 76.4232 30.4438C76.905 30.9234 77.1448 31.5212 77.1448 32.2349C77.1448 32.9486 76.905 33.507 76.4232 33.989C75.9414 34.4686 75.3409 34.7096 74.624 34.7096C73.9071 34.7096 73.3439 34.471 72.8621 33.989C72.3802 33.5094 72.1382 32.9254 72.1382 32.2349ZM72.9179 36.5216H76.365V53.4622H72.9179V36.5216Z" fill="white"/>
<path d="M118.175 48.4061C117.928 49.194 117.563 49.9262 117.081 50.6028C116.599 51.2794 116.017 51.8703 115.338 52.3754C114.658 52.8805 113.885 53.2791 113.02 53.5757C112.154 53.8723 111.202 54.0182 110.164 54.0182C108.977 54.0182 107.841 53.8097 106.751 53.3903C105.664 52.9732 104.705 52.3569 103.879 51.5459C103.051 50.7349 102.397 49.7362 101.915 48.5568C101.433 47.375 101.191 46.0357 101.191 44.5342C101.191 43.1323 101.426 41.8579 101.896 40.7132C102.366 39.5686 102.99 38.5838 103.767 37.7589C104.545 36.934 105.455 36.2945 106.493 35.8403C107.531 35.3861 108.606 35.1567 109.719 35.1567C111.078 35.1567 112.296 35.3861 113.371 35.8403C114.446 36.2968 115.342 36.9294 116.059 37.7404C116.776 38.5513 117.326 39.5315 117.71 40.6762C118.094 41.8208 118.284 43.0814 118.284 44.4601C118.284 44.6825 118.278 44.891 118.266 45.088C118.254 45.285 118.236 45.4448 118.21 45.5676H104.787C104.81 46.3555 104.959 47.0807 105.232 47.7458C105.504 48.4108 105.881 48.9831 106.363 49.4628C106.845 49.9424 107.412 50.3108 108.069 50.5704C108.723 50.8276 109.423 50.9573 110.164 50.9573C111.623 50.9573 112.736 50.6121 113.501 49.9239C114.267 49.2357 114.823 48.3853 115.17 47.3773L118.173 48.4108L118.175 48.4061ZM114.653 42.7593C114.605 41.4802 114.172 40.4027 113.355 39.5292C112.54 38.6556 111.339 38.22 109.759 38.22C109.018 38.22 108.355 38.3474 107.776 38.607C107.194 38.8642 106.7 39.2094 106.293 39.6404C105.886 40.0714 105.557 40.558 105.311 41.0979C105.064 41.6401 104.927 42.1916 104.903 42.7593H114.656H114.653Z" fill="white"/>
<path d="M23.9716 52.9432L10.772 46.3301C4.12677 43.0003 0 36.3339 0 28.9283V8.468C0 6.74405 1.40352 5.3445 3.13756 5.3445C4.87159 5.3445 6.27511 6.74173 6.27511 8.468V28.926C6.27511 33.9565 9.07983 38.4888 13.5953 40.7504L23.9762 45.95L34.3688 40.7481C38.8866 38.4865 41.6913 33.9542 41.6913 28.9214V3.84763C41.6913 2.12367 43.0948 0.724121 44.8289 0.724121C46.5629 0.724121 47.9664 2.12136 47.9664 3.84763V28.9237C47.9664 36.3316 43.8373 43.0003 37.1875 46.3301L23.9762 52.9432H23.9716Z" fill="#D6D7D7"/>
<path d="M17.9901 28.6803L0.814991 9.8443C-0.348791 8.56756 -0.253361 6.59336 1.02913 5.43247C2.31161 4.2739 4.2947 4.3689 5.46081 5.64565L18.6581 20.1208L42.8555 0.691603C44.2054 -0.390501 46.1792 -0.17964 47.2662 1.16198C48.3532 2.50361 48.1413 4.47086 46.7937 5.55296L17.9878 28.6803H17.9901Z" fill="white"/>
</svg>
